# xmcd
#
# Track frame offsets:
#	150
#	16944
#	32734
#	53047
#	68574
#	84772
#	103001
#	124347
#	141193
#	157769
#	172714
#	188589
#
# Disc length: 2672 seconds
#
# Revision: 1
# Processed by: cddbd v1.5.1PL2 Copyright (c) Steve Scherf et al.
# Submitted via: audiograbber 1.83.01
#
DISCID=860a6e0c
DTITLE=ACO REGINA - Koraci
DYEAR=2004
DGENRE=Pop
TTITLE0=Jedino moje
TTITLE1=Lose vrijeme
TTITLE2=Kao ti kao ja
TTITLE3=Koraci (RMX)
TTITLE4=Nista novo
TTITLE5=Moja draga
TTITLE6=U prolazu
TTITLE7=Pozelo sam te
TTITLE8=Vrdalama
TTITLE9=Vaga
TTITLE10=U inat vremena
TTITLE11=U prolazu (Beovizija 2004)
EXTD=
EXTT0=
EXTT1=
EXTT2=
EXTT3=
EXTT4=
EXTT5=
EXTT6=
EXTT7=
EXTT8=
EXTT9=
EXTT10=
EXTT11=
PLAYORDER=
